<svg width="1280" height="663" viewBox="0 0 1280 663" fill="none" xmlns="http://www.w3.org/2000/svg">
<rect y="3" width="1280" height="660" fill="#0097AB"/>
<g style="mix-blend-mode:soft-light">
<path d="M737.178 585.88C700.076 539.683 710.482 476.382 760.419 444.493C793.71 423.234 840.749 430.966 865.483 461.764L932.838 545.631C938.026 552.09 936.571 560.941 929.589 565.4L861.638 608.792C822.92 633.517 768.213 624.524 739.447 588.706L737.178 585.88Z" fill="#00ADC5" fill-opacity="0.44"/>
</g>
<g style="mix-blend-mode:soft-light">
<path d="M557.178 147.88C520.076 101.683 530.482 38.3825 580.419 6.49345C613.71 -14.7659 660.749 -7.03361 685.483 23.764L752.838 107.631C758.026 114.09 756.571 122.941 749.589 127.4L681.638 170.792C642.92 195.517 588.213 186.524 559.447 150.706L557.178 147.88Z" fill="#00ADC5" fill-opacity="0.44"/>
</g>
<g style="mix-blend-mode:soft-light">
<path d="M189.078 595.32C151.977 549.123 162.383 485.822 212.32 453.933C245.611 432.674 292.65 440.406 317.384 471.204L384.739 555.071C389.926 561.53 388.472 570.381 381.489 574.84L313.539 618.232C274.821 642.957 220.114 633.964 191.348 598.146L189.078 595.32Z" fill="#00ADC5" fill-opacity="0.44"/>
</g>
<g style="mix-blend-mode:soft-light">
<path d="M59.1775 271.88C22.0764 225.683 32.4819 162.382 82.4188 130.493C115.71 109.234 162.749 116.966 187.483 147.764L254.838 231.631C260.026 238.09 258.571 246.941 251.589 251.4L183.638 294.792C144.92 319.517 90.2134 310.524 61.4473 274.706L59.1775 271.88Z" fill="#00ADC5" fill-opacity="0.44"/>
</g>
<g style="mix-blend-mode:soft-light">
<path d="M1074.95 239.441C1037.85 193.244 1048.25 129.944 1098.19 98.0547C1131.48 76.7953 1178.52 84.5276 1203.25 115.325L1270.61 199.192C1275.79 205.652 1274.34 214.502 1267.36 218.961L1199.41 262.353C1160.69 287.078 1105.98 278.085 1077.22 242.267L1074.95 239.441Z" fill="#00ADC5" fill-opacity="0.44"/>
</g>
</svg>
