<svg width="75" height="60" viewBox="0 0 75 60" fill="none" xmlns="http://www.w3.org/2000/svg">
<path d="M16.6429 21.4287L35.8857 2.61439C36.0297 2.46401 36.2027 2.34434 36.3942 2.26258C36.5857 2.18082 36.7918 2.13867 37 2.13867C37.2082 2.13867 37.4143 2.18082 37.6058 2.26258C37.7973 2.34434 37.9703 2.46401 38.1143 2.61439L57.3571 21.4287M16.6429 38.5715L35.8857 57.3858C36.0297 57.5362 36.2027 57.6559 36.3942 57.7376C36.5857 57.8194 36.7918 57.8615 37 57.8615C37.2082 57.8615 37.4143 57.8194 37.6058 57.7376C37.7973 57.6559 37.9703 57.5362 38.1143 57.3858L57.3571 38.5715" stroke="white" stroke-opacity="0.8" stroke-linecap="round" stroke-linejoin="round"/>
<path d="M2.37607 33.0909C1.98591 33.0909 1.64595 32.9934 1.35618 32.7983C1.0683 32.6032 0.844815 32.3362 0.685724 31.9972C0.526634 31.6581 0.447088 31.2718 0.447088 30.8381C0.447088 30.4006 0.527581 30.0114 0.688565 29.6705C0.851444 29.3295 1.07682 29.0625 1.3647 28.8693C1.65258 28.6742 1.98686 28.5767 2.36754 28.5767C2.65921 28.5767 2.92341 28.6335 3.16016 28.7472C3.3969 28.8589 3.59197 29.017 3.74538 29.2216C3.90069 29.4242 3.99822 29.661 4.038 29.9318H3.52663C3.4736 29.6856 3.34576 29.4754 3.14311 29.3011C2.94235 29.125 2.68667 29.0369 2.37607 29.0369C2.09766 29.0369 1.85144 29.1127 1.63743 29.2642C1.42341 29.4138 1.2558 29.6231 1.13459 29.892C1.01527 30.1591 0.955611 30.4687 0.955611 30.821C0.955611 31.1752 1.01432 31.4886 1.13175 31.7614C1.24917 32.0322 1.41394 32.2443 1.62607 32.3977C1.84008 32.5511 2.09008 32.6278 2.37607 32.6278C2.56925 32.6278 2.74538 32.5919 2.90447 32.5199C3.06546 32.446 3.19993 32.3419 3.30788 32.2074C3.41773 32.0729 3.4916 31.9129 3.52947 31.7273H4.04084C4.00296 31.9905 3.90921 32.2254 3.75959 32.4318C3.61186 32.6364 3.41963 32.7973 3.18288 32.9148C2.94804 33.0322 2.6791 33.0909 2.37607 33.0909ZM6.82067 33.0909C6.44377 33.0909 6.11044 32.9953 5.82067 32.804C5.53279 32.6127 5.30741 32.3485 5.14453 32.0114C4.98165 31.6723 4.90021 31.2812 4.90021 30.8381C4.90021 30.3911 4.98165 29.9981 5.14453 29.6591C5.30741 29.3182 5.53279 29.053 5.82067 28.8636C6.11044 28.6723 6.44377 28.5767 6.82067 28.5767C7.19756 28.5767 7.52995 28.6723 7.81783 28.8636C8.10571 29.0549 8.33108 29.3201 8.49396 29.6591C8.65874 29.9981 8.74112 30.3911 8.74112 30.8381C8.74112 31.2812 8.65968 31.6723 8.4968 32.0114C8.33393 32.3485 8.1076 32.6127 7.81783 32.804C7.52995 32.9953 7.19756 33.0909 6.82067 33.0909ZM6.82067 32.6278C7.1237 32.6278 7.38033 32.5464 7.59055 32.3835C7.80078 32.2206 7.95987 32.0038 8.06783 31.733C8.17768 31.4621 8.2326 31.1638 8.2326 30.8381C8.2326 30.5123 8.17768 30.2131 8.06783 29.9403C7.95987 29.6676 7.80078 29.4489 7.59055 29.2841C7.38033 29.1193 7.1237 29.0369 6.82067 29.0369C6.51953 29.0369 6.2629 29.1193 6.05078 29.2841C5.84055 29.4489 5.68052 29.6676 5.57067 29.9403C5.46271 30.2131 5.40874 30.5123 5.40874 30.8381C5.40874 31.1638 5.46271 31.4621 5.57067 31.733C5.68052 32.0038 5.84055 32.2206 6.05078 32.3835C6.26101 32.5464 6.51764 32.6278 6.82067 32.6278ZM10.3569 30.2727V33H9.85121V28.6364H10.3427V29.321H10.3881C10.4904 29.0975 10.6495 28.9186 10.8654 28.7841C11.0832 28.6477 11.3522 28.5795 11.6722 28.5795C11.9658 28.5795 12.2234 28.6411 12.445 28.7642C12.6684 28.8854 12.8417 29.0644 12.9648 29.3011C13.0898 29.5379 13.1523 29.8286 13.1523 30.1733V33H12.6467V30.2045C12.6467 29.8466 12.5463 29.5634 12.3455 29.3551C12.1467 29.1468 11.8796 29.0426 11.5444 29.0426C11.3152 29.0426 11.1116 29.0919 10.9336 29.1903C10.7556 29.2888 10.6145 29.4309 10.5103 29.6165C10.408 29.8002 10.3569 30.0189 10.3569 30.2727ZM16.2028 28.6364V29.0767H14.1204V28.6364H16.2028ZM14.771 27.5909H15.2795V31.8608C15.2795 32.0426 15.3107 32.1856 15.3732 32.2898C15.4357 32.392 15.5172 32.465 15.6175 32.5085C15.7179 32.5502 15.8249 32.571 15.9386 32.571C16.0049 32.571 16.0617 32.5672 16.109 32.5597C16.1564 32.5502 16.198 32.5407 16.234 32.5312L16.342 32.9886C16.2927 33.0076 16.2321 33.0246 16.1602 33.0398C16.0882 33.0568 15.9992 33.0653 15.8931 33.0653C15.7075 33.0653 15.5285 33.0246 15.3562 32.9432C15.1857 32.8617 15.0456 32.7405 14.9357 32.5795C14.8259 32.4186 14.771 32.2188 14.771 31.9801V27.5909ZM17.3569 33V28.6364H17.8654V33H17.3569ZM17.6154 27.8864C17.5112 27.8864 17.4222 27.8513 17.3484 27.7812C17.2745 27.7093 17.2376 27.6231 17.2376 27.5227C17.2376 27.4223 17.2745 27.3371 17.3484 27.267C17.4222 27.1951 17.5112 27.1591 17.6154 27.1591C17.7196 27.1591 17.8086 27.1951 17.8825 27.267C17.9563 27.3371 17.9933 27.4223 17.9933 27.5227C17.9933 27.6231 17.9563 27.7093 17.8825 27.7812C17.8086 27.8513 17.7196 27.8864 17.6154 27.8864ZM19.7085 30.2727V33H19.2028V28.6364H19.6942V29.321H19.7397C19.842 29.0975 20.0011 28.9186 20.217 28.7841C20.4348 28.6477 20.7037 28.5795 21.0238 28.5795C21.3174 28.5795 21.5749 28.6411 21.7965 28.7642C22.02 28.8854 22.1933 29.0644 22.3164 29.3011C22.4414 29.5379 22.5039 29.8286 22.5039 30.1733V33H21.9982V30.2045C21.9982 29.8466 21.8978 29.5634 21.6971 29.3551C21.4982 29.1468 21.2312 29.0426 20.896 29.0426C20.6668 29.0426 20.4632 29.0919 20.2852 29.1903C20.1071 29.2888 19.966 29.4309 19.8619 29.6165C19.7596 29.8002 19.7085 30.0189 19.7085 30.2727ZM26.6083 31.3324V28.6364H27.114V33H26.6083V32.2756H26.5685C26.4663 32.4991 26.3043 32.6856 26.0827 32.8352C25.8612 32.983 25.5903 33.0568 25.2702 33.0568C24.9918 33.0568 24.7447 32.9962 24.5288 32.875C24.3129 32.7519 24.1433 32.572 24.0202 32.3352C23.8971 32.0985 23.8356 31.8078 23.8356 31.4631V28.6364H24.3413V31.4318C24.3413 31.7727 24.4416 32.0473 24.6424 32.2557C24.8432 32.4621 25.1007 32.5653 25.4151 32.5653C25.6121 32.5653 25.8015 32.518 25.9833 32.4233C26.1651 32.3286 26.3147 32.1903 26.4322 32.0085C26.5496 31.8248 26.6083 31.5994 26.6083 31.3324ZM30.217 33.0909C29.8098 33.0909 29.4575 32.9962 29.1602 32.8068C28.8628 32.6155 28.6327 32.3513 28.4698 32.0142C28.3088 31.6752 28.2283 31.285 28.2283 30.8438C28.2283 30.4044 28.3088 30.0142 28.4698 29.6733C28.6327 29.3305 28.8571 29.0625 29.1431 28.8693C29.431 28.6742 29.7634 28.5767 30.1403 28.5767C30.377 28.5767 30.6052 28.6203 30.8249 28.7074C31.0446 28.7926 31.2416 28.9242 31.4158 29.1023C31.592 29.2784 31.7312 29.5009 31.8335 29.7699C31.9357 30.0369 31.9869 30.3532 31.9869 30.7188V30.9688H28.5778V30.5227H31.4698C31.4698 30.2424 31.413 29.9905 31.2994 29.767C31.1876 29.5417 31.0314 29.3636 30.8306 29.233C30.6317 29.1023 30.4016 29.0369 30.1403 29.0369C29.8638 29.0369 29.6204 29.1108 29.4102 29.2585C29.1999 29.4062 29.0352 29.6013 28.9158 29.8438C28.7984 30.0862 28.7388 30.3513 28.7369 30.6392V30.9062C28.7369 31.2528 28.7965 31.5559 28.9158 31.8153C29.0371 32.0729 29.2085 32.2727 29.43 32.4148C29.6516 32.5568 29.9139 32.6278 30.217 32.6278C30.4234 32.6278 30.6043 32.5956 30.7596 32.5312C30.9168 32.4669 31.0484 32.3807 31.1545 32.2727C31.2624 32.1629 31.3439 32.0426 31.3988 31.9119L31.8789 32.0682C31.8126 32.2519 31.7037 32.4214 31.5522 32.5767C31.4026 32.732 31.2151 32.857 30.9897 32.9517C30.7662 33.0445 30.5086 33.0909 30.217 33.0909ZM36.9222 33.0909C36.5643 33.0909 36.2508 32.9962 35.9819 32.8068C35.7129 32.6174 35.5027 32.3532 35.3512 32.0142C35.2016 31.6752 35.1268 31.2803 35.1268 30.8295C35.1268 30.3807 35.2016 29.9877 35.3512 29.6506C35.5027 29.3116 35.7139 29.0483 35.9847 28.8608C36.2556 28.6714 36.5709 28.5767 36.9308 28.5767C37.1959 28.5767 37.4165 28.6241 37.5927 28.7188C37.7688 28.8116 37.9099 28.9271 38.016 29.0653C38.122 29.2036 38.2044 29.3381 38.2631 29.4688H38.3086V27.1818H38.8171V33H38.3228V32.1903H38.2631C38.2044 32.3229 38.1211 32.4593 38.0131 32.5994C37.9052 32.7377 37.7622 32.8542 37.5842 32.9489C37.408 33.0436 37.1874 33.0909 36.9222 33.0909ZM36.9819 32.6278C37.2641 32.6278 37.5046 32.5511 37.7035 32.3977C37.9023 32.2424 38.0539 32.0294 38.158 31.7585C38.2641 31.4858 38.3171 31.1733 38.3171 30.821C38.3171 30.4725 38.265 30.1648 38.1609 29.8977C38.0567 29.6288 37.9052 29.4186 37.7063 29.267C37.5075 29.1136 37.266 29.0369 36.9819 29.0369C36.6902 29.0369 36.444 29.1165 36.2433 29.2756C36.0444 29.4328 35.8929 29.6458 35.7887 29.9148C35.6864 30.1837 35.6353 30.4858 35.6353 30.821C35.6353 31.16 35.6874 31.4659 35.7915 31.7386C35.8957 32.0114 36.0472 32.2282 36.2461 32.3892C36.4469 32.5483 36.6921 32.6278 36.9819 32.6278ZM42.0217 33.0909C41.6145 33.0909 41.2622 32.9962 40.9648 32.8068C40.6675 32.6155 40.4374 32.3513 40.2745 32.0142C40.1135 31.6752 40.033 31.285 40.033 30.8438C40.033 30.4044 40.1135 30.0142 40.2745 29.6733C40.4374 29.3305 40.6618 29.0625 40.9478 28.8693C41.2357 28.6742 41.5681 28.5767 41.945 28.5767C42.1817 28.5767 42.4099 28.6203 42.6296 28.7074C42.8493 28.7926 43.0463 28.9242 43.2205 29.1023C43.3967 29.2784 43.5359 29.5009 43.6381 29.7699C43.7404 30.0369 43.7915 30.3532 43.7915 30.7188V30.9688H40.3825V30.5227H43.2745C43.2745 30.2424 43.2177 29.9905 43.104 29.767C42.9923 29.5417 42.8361 29.3636 42.6353 29.233C42.4364 29.1023 42.2063 29.0369 41.945 29.0369C41.6684 29.0369 41.4251 29.1108 41.2148 29.2585C41.0046 29.4062 40.8398 29.6013 40.7205 29.8438C40.6031 30.0862 40.5434 30.3513 40.5415 30.6392V30.9062C40.5415 31.2528 40.6012 31.5559 40.7205 31.8153C40.8417 32.0729 41.0131 32.2727 41.2347 32.4148C41.4563 32.5568 41.7186 32.6278 42.0217 32.6278C42.2281 32.6278 42.409 32.5956 42.5643 32.5312C42.7215 32.4669 42.8531 32.3807 42.9592 32.2727C43.0671 32.1629 43.1486 32.0426 43.2035 31.9119L43.6836 32.0682C43.6173 32.2519 43.5084 32.4214 43.3569 32.5767C43.2073 32.732 43.0198 32.857 42.7944 32.9517C42.5709 33.0445 42.3133 33.0909 42.0217 33.0909ZM47.8377 29.5938L47.3746 29.7244C47.3292 29.5937 47.2648 29.4754 47.1815 29.3693C47.0981 29.2633 46.9892 29.179 46.8548 29.1165C46.7222 29.054 46.5574 29.0227 46.3604 29.0227C46.065 29.0227 45.8226 29.0928 45.6332 29.233C45.4438 29.3731 45.3491 29.554 45.3491 29.7756C45.3491 29.9631 45.4135 30.1155 45.5423 30.233C45.6729 30.3485 45.8737 30.4403 46.1445 30.5085L46.8036 30.6705C47.1692 30.7595 47.4428 30.9006 47.6246 31.0938C47.8084 31.2869 47.9002 31.5294 47.9002 31.821C47.9002 32.0672 47.832 32.286 47.6957 32.4773C47.5593 32.6686 47.369 32.8191 47.1246 32.929C46.8822 33.0369 46.601 33.0909 46.2809 33.0909C45.8548 33.0909 45.5034 32.9953 45.2269 32.804C44.9504 32.6108 44.7733 32.3324 44.6957 31.9688L45.1815 31.8494C45.244 32.1089 45.3661 32.3049 45.5479 32.4375C45.7317 32.5701 45.9731 32.6364 46.2724 32.6364C46.6076 32.6364 46.8756 32.5616 47.0763 32.4119C47.2771 32.2604 47.3775 32.071 47.3775 31.8438C47.3775 31.6676 47.3188 31.5199 47.2013 31.4006C47.0839 31.2794 46.9059 31.1903 46.6673 31.1335L45.9542 30.9631C45.5754 30.8722 45.2951 30.7282 45.1133 30.5312C44.9315 30.3343 44.8406 30.09 44.8406 29.7983C44.8406 29.5578 44.9059 29.3466 45.0366 29.1648C45.1673 28.9811 45.3472 28.8371 45.5763 28.733C45.8055 28.6288 46.0669 28.5767 46.3604 28.5767C46.7601 28.5767 47.0792 28.6676 47.3178 28.8494C47.5584 29.0294 47.7317 29.2775 47.8377 29.5938ZM49.5131 27.1818V33H49.0075V27.1818H49.5131ZM50.8569 33V28.6364H51.3654V33H50.8569ZM51.1154 27.8864C51.0112 27.8864 50.9222 27.8513 50.8484 27.7812C50.7745 27.7093 50.7376 27.6231 50.7376 27.5227C50.7376 27.4223 50.7745 27.3371 50.8484 27.267C50.9222 27.1951 51.0112 27.1591 51.1154 27.1591C51.2196 27.1591 51.3086 27.1951 51.3825 27.267C51.4563 27.3371 51.4933 27.4223 51.4933 27.5227C51.4933 27.6231 51.4563 27.7093 51.3825 27.7812C51.3086 27.8513 51.2196 27.8864 51.1154 27.8864ZM52.5664 33V32.5994L55.0891 29.1506V29.1136H52.6744V28.6364H55.7397V29.054L53.2624 32.4858V32.5227H55.8306V33H52.5664ZM58.1637 33.0994C57.9004 33.0994 57.6599 33.0483 57.4421 32.946C57.2243 32.8419 57.051 32.6922 56.9222 32.4972C56.7934 32.3002 56.729 32.0616 56.729 31.7812C56.729 31.5653 56.7698 31.3835 56.8512 31.2358C56.9326 31.0881 57.0482 30.9669 57.1978 30.8722C57.3474 30.7775 57.5245 30.7027 57.729 30.6477C57.9336 30.5928 58.159 30.5502 58.4052 30.5199C58.6495 30.4896 58.8559 30.4631 59.0245 30.4403C59.195 30.4176 59.3247 30.3816 59.4137 30.3324C59.5027 30.2831 59.5472 30.2036 59.5472 30.0938V29.9915C59.5472 29.6941 59.4582 29.4602 59.2802 29.2898C59.104 29.1174 58.8503 29.0312 58.5188 29.0312C58.2044 29.0312 57.9478 29.1004 57.7489 29.2386C57.552 29.3769 57.4137 29.5398 57.3342 29.7273L56.854 29.554C56.9525 29.3153 57.0889 29.125 57.2631 28.983C57.4374 28.839 57.6325 28.7358 57.8484 28.6733C58.0643 28.6089 58.283 28.5767 58.5046 28.5767C58.6713 28.5767 58.8446 28.5985 59.0245 28.642C59.2063 28.6856 59.3749 28.7614 59.5302 28.8693C59.6855 28.9754 59.8114 29.1241 59.908 29.3153C60.0046 29.5047 60.0529 29.7453 60.0529 30.0369V33H59.5472V32.3097H59.516C59.4554 32.4384 59.3654 32.5634 59.2461 32.6847C59.1268 32.8059 58.9772 32.9053 58.7972 32.983C58.6173 33.0606 58.4061 33.0994 58.1637 33.0994ZM58.2319 32.6364C58.5008 32.6364 58.7338 32.5767 58.9308 32.4574C59.1277 32.3381 59.2792 32.1799 59.3853 31.983C59.4933 31.7841 59.5472 31.5653 59.5472 31.3267V30.696C59.5094 30.732 59.4459 30.7642 59.3569 30.7926C59.2698 30.821 59.1684 30.8466 59.0529 30.8693C58.9393 30.8902 58.8256 30.9081 58.712 30.9233C58.5984 30.9384 58.4961 30.9517 58.4052 30.9631C58.159 30.9934 57.9487 31.0407 57.7745 31.1051C57.6003 31.1695 57.4667 31.2585 57.3739 31.3722C57.2811 31.4839 57.2347 31.6278 57.2347 31.804C57.2347 32.0691 57.3294 32.2746 57.5188 32.4205C57.7082 32.5644 57.9459 32.6364 58.2319 32.6364ZM61.9038 30.2727V33H61.3981V28.6364H61.8896V29.321H61.935C62.0373 29.0975 62.1964 28.9186 62.4123 28.7841C62.6301 28.6477 62.899 28.5795 63.2191 28.5795C63.5127 28.5795 63.7702 28.6411 63.9918 28.7642C64.2153 28.8854 64.3886 29.0644 64.5117 29.3011C64.6367 29.5379 64.6992 29.8286 64.6992 30.1733V33H64.1935V30.2045C64.1935 29.8466 64.0932 29.5634 63.8924 29.3551C63.6935 29.1468 63.4265 29.0426 63.0913 29.0426C62.8621 29.0426 62.6585 29.0919 62.4805 29.1903C62.3024 29.2888 62.1613 29.4309 62.0572 29.6165C61.9549 29.8002 61.9038 30.0189 61.9038 30.2727ZM67.6019 33.0909C67.244 33.0909 66.9305 32.9962 66.6616 32.8068C66.3926 32.6174 66.1824 32.3532 66.0309 32.0142C65.8813 31.6752 65.8065 31.2803 65.8065 30.8295C65.8065 30.3807 65.8813 29.9877 66.0309 29.6506C66.1824 29.3116 66.3936 29.0483 66.6644 28.8608C66.9353 28.6714 67.2506 28.5767 67.6104 28.5767C67.8756 28.5767 68.0962 28.6241 68.2724 28.7188C68.4485 28.8116 68.5896 28.9271 68.6957 29.0653C68.8017 29.2036 68.8841 29.3381 68.9428 29.4688H68.9883V27.1818H69.4968V33H69.0025V32.1903H68.9428C68.8841 32.3229 68.8008 32.4593 68.6928 32.5994C68.5849 32.7377 68.4419 32.8542 68.2638 32.9489C68.0877 33.0436 67.8671 33.0909 67.6019 33.0909ZM67.6616 32.6278C67.9438 32.6278 68.1843 32.5511 68.3832 32.3977C68.582 32.2424 68.7335 32.0294 68.8377 31.7585C68.9438 31.4858 68.9968 31.1733 68.9968 30.821C68.9968 30.4725 68.9447 30.1648 68.8406 29.8977C68.7364 29.6288 68.5849 29.4186 68.386 29.267C68.1871 29.1136 67.9457 29.0369 67.6616 29.0369C67.3699 29.0369 67.1237 29.1165 66.9229 29.2756C66.7241 29.4328 66.5726 29.6458 66.4684 29.9148C66.3661 30.1837 66.315 30.4858 66.315 30.821C66.315 31.16 66.3671 31.4659 66.4712 31.7386C66.5754 32.0114 66.7269 32.2282 66.9258 32.3892C67.1265 32.5483 67.3718 32.6278 67.6616 32.6278ZM72.6332 33.0909C72.2563 33.0909 71.9229 32.9953 71.6332 32.804C71.3453 32.6127 71.1199 32.3485 70.957 32.0114C70.7942 31.6723 70.7127 31.2812 70.7127 30.8381C70.7127 30.3911 70.7942 29.9981 70.957 29.6591C71.1199 29.3182 71.3453 29.053 71.6332 28.8636C71.9229 28.6723 72.2563 28.5767 72.6332 28.5767C73.0101 28.5767 73.3424 28.6723 73.6303 28.8636C73.9182 29.0549 74.1436 29.3201 74.3065 29.6591C74.4712 29.9981 74.5536 30.3911 74.5536 30.8381C74.5536 31.2812 74.4722 31.6723 74.3093 32.0114C74.1464 32.3485 73.9201 32.6127 73.6303 32.804C73.3424 32.9953 73.0101 33.0909 72.6332 33.0909ZM72.6332 32.6278C72.9362 32.6278 73.1928 32.5464 73.4031 32.3835C73.6133 32.2206 73.7724 32.0038 73.8803 31.733C73.9902 31.4621 74.0451 31.1638 74.0451 30.8381C74.0451 30.5123 73.9902 30.2131 73.8803 29.9403C73.7724 29.6676 73.6133 29.4489 73.4031 29.2841C73.1928 29.1193 72.9362 29.0369 72.6332 29.0369C72.332 29.0369 72.0754 29.1193 71.8633 29.2841C71.6531 29.4489 71.493 29.6676 71.3832 29.9403C71.2752 30.2131 71.2212 30.5123 71.2212 30.8381C71.2212 31.1638 71.2752 31.4621 71.3832 31.733C71.493 32.0038 71.6531 32.2206 71.8633 32.3835C72.0735 32.5464 72.3301 32.6278 72.6332 32.6278Z" fill="white" fill-opacity="0.8"/>
</svg>
