<svg width="40" height="40" viewBox="0 0 40 40" fill="none" xmlns="http://www.w3.org/2000/svg">
<g clip-path="url(#clip0_47_3)">
<path d="M34.6566 8.66841C32.9674 6.97061 30.9553 5.62447 28.7377 4.70851C26.5201 3.79255 24.1414 3.3251 21.7404 3.33342C11.6801 3.33342 3.48074 11.4917 3.48074 21.5017C3.48074 24.71 4.32831 27.8267 5.9129 30.5767L3.33334 40L13.0067 37.47C15.6784 38.9183 18.6817 39.6883 21.7404 39.6883C31.8007 39.6883 40 31.53 40 21.52C40 16.6617 38.1022 12.0967 34.6566 8.66841ZM21.7404 36.6083C19.0134 36.6083 16.3417 35.875 14.0017 34.5L13.4489 34.17L7.70017 35.6733L9.22948 30.1L8.86097 29.5317C7.34593 27.1245 6.54147 24.342 6.53937 21.5017C6.53937 13.1784 13.3568 6.39508 21.7219 6.39508C25.7755 6.39508 29.5896 7.97174 32.4456 10.8317C33.8597 12.2323 34.9804 13.8983 35.7426 15.733C36.5049 17.5677 36.8935 19.5347 36.8861 21.52C36.923 29.8433 30.1055 36.6083 21.7404 36.6083ZM30.0687 25.315C29.608 25.095 27.3601 23.995 26.9548 23.83C26.531 23.6834 26.2362 23.61 25.923 24.05C25.6097 24.5084 24.7437 25.535 24.4858 25.8284C24.2278 26.14 23.9514 26.1767 23.4908 25.9384C23.0302 25.7184 21.5561 25.2234 19.8241 23.6834C18.4606 22.4734 17.5578 20.9884 17.2814 20.53C17.0235 20.0717 17.2446 19.8334 17.4841 19.595C17.6868 19.3934 17.9447 19.0634 18.1658 18.8067C18.3869 18.55 18.4791 18.3484 18.6265 18.055C18.7739 17.7434 18.7002 17.4867 18.5896 17.2667C18.4791 17.0467 17.5578 14.8101 17.1893 13.8934C16.8208 13.0134 16.4338 13.1234 16.1575 13.1051H15.273C14.9598 13.1051 14.4807 13.2151 14.057 13.6734C13.6516 14.1317 12.4724 15.2317 12.4724 17.4684C12.4724 19.705 14.1122 21.8684 14.3333 22.1617C14.5544 22.4734 17.5578 27.0567 22.1273 29.0183C23.2144 29.495 24.062 29.77 24.7253 29.9717C25.8124 30.32 26.8074 30.265 27.5997 30.155C28.4841 30.0267 30.3082 29.055 30.6767 27.9917C31.0637 26.9284 31.0637 26.03 30.9347 25.8284C30.8057 25.6267 30.5293 25.535 30.0687 25.315Z" fill="white"/>
</g>
<defs>
<clipPath id="clip0_47_3">
<rect width="40" height="40" fill="white"/>
</clipPath>
</defs>
</svg>
