<svg width="60" height="50" viewBox="0 0 60 50" fill="none" xmlns="http://www.w3.org/2000/svg">
<path d="M6 50C4.35 50 2.937 49.3875 1.761 48.1625C0.585005 46.9375 -0.00199491 45.4667 5.09338e-06 43.75V6.25C5.09338e-06 4.53125 0.588005 3.05938 1.764 1.83438C2.94 0.60938 4.352 -0.00207803 6 5.3056e-06H54C55.65 5.3056e-06 57.063 0.612504 58.239 1.8375C59.415 3.0625 60.002 4.53334 60 6.25V43.75C60 45.4687 59.412 46.9406 58.236 48.1656C57.06 49.3906 55.648 50.0021 54 50H6ZM30 28.125L54 12.5V6.25L30 21.875L6 6.25V12.5L30 28.125Z" fill="#F8F8F8"/>
</svg>
